<svg width="440" height="855" viewBox="0 0 440 855" fill="none" xmlns="http://www.w3.org/2000/svg">
<path d="M220 275.678L416 79.9066L440 2.96906e-05L220 219.743L2.6226e-05 -1.9233e-05L24 79.9065L220 275.678Z" fill="#1E2938"/>
<path d="M220 395.537L364 251.706L388 171.799L220 339.603L52 171.799L76 251.706L220 395.537Z" fill="#1E2938"/>
<path d="M312 423.505L311 427.5L312 431.495L336 511.402L280 455.467L280 399.533L336 343.598L312 423.505Z" fill="#1E2938"/>
<path d="M160 455.467L104 511.402L128 431.495L129 427.5L128 423.505L104 343.598L160 399.533L160 455.467Z" fill="#1E2938"/>
<path d="M220 579.322L24 775.093L-1.11472e-05 855L220 635.257L440 855L416 775.093L220 579.322Z" fill="#1E2938"/>
<path d="M220 459.463L364 603.294L388 683.201L220 515.397L52 683.201L76 603.294L220 459.463Z" fill="#1E2938"/>
</svg>
