<?xml version="1.0" encoding="UTF-8" standalone="no"?>
<svg xmlns:dc="http://purl.org/dc/elements/1.1/" xmlns:cc="http://creativecommons.org/ns#" xmlns:rdf="http://www.w3.org/1999/02/22-rdf-syntax-ns#" xmlns:svg="http://www.w3.org/2000/svg" xmlns="http://www.w3.org/2000/svg" id="svg196" version="1.1" viewBox="0 0 1000 426.3261413574217" height="426.3261413574219" width="1000">
    <defs id="defs190" />
    <g transform="translate(-230.157142857143,50.13504445395802)" id="layer1">
        <g transform="matrix(3.274394237066143,0,0,3.274394237066142,230.157142857143,-50.13504445395802)" id="g154">
            <g id="g119">
                <g id="g113">
                    <g id="g111">
                        <g id="g109">
                            <g id="g107">
                                <path d="M 67.4,77 V 30.1 H 40.3 L 0,77 H 10.3 L 5.500000000000001,82.59999999999999 V 99.5 H 57 V 114.5 H 76.5 V 77.09999999999999 H 67.4 Z M 57,82.7 H 26.5 L 31.5,77 H 22.5 L 48,47.7 V 77 H 57 Z" id="path69" />
                                <path d="M 165.6,64.2 H 155 C 154.7,45.30000000000001 138.8,30.1 119.2,30.1 H 86.79999999999998 V 64.2 H 97.29999999999998 V 99.4 H 129.8 C 149.6,99.4 165.6,83.9 165.6,64.7 C 165.7,64.59999999999999 165.6,64.4 165.6,64.2 Z M 131.4,82.7 H 117.6 V 64.2 H 107 V 46.8 H 120.8 C 128.5,46.8 134.7,54.6 134.9,64.29999999999998 H 145.5 C 145.5,64.5 145.5,64.59999999999999 145.5,64.79999999999998 C 145.5,74.59999999999999 139.2,82.7 131.4,82.7 Z" id="path71" />
                                <g id="g75">
                                    <polygon points="174.3,84.40000000000001 254.6,84.40000000000001 250.1,79.7 178.8,79.7 " id="polygon73" />
                                </g>
                                <g id="g79">
                                    <polygon points="188.4,77 256.9,77 244.7,64.2 200.6,64.2 " id="polygon77" />
                                </g>
                                <g id="g83">
                                    <polygon points="206.5,61.4 256.5,61.4 264.4,53.2 198.6,53.2 " id="polygon81" />
                                </g>
                                <g id="g89">
                                    <polygon points="212.7,50.4 193.3,30.2 157.9,30.2 177.3,50.4 " id="polygon85" />
                                    <polygon points="245.9,50.4 265.3,30.2 233,30.2 213.6,50.4 " id="polygon87" />
                                </g>
                                <g id="g95">
                                    <polygon points="206.6,27.4 193.4,13.8 158,13.8 171.2,27.4 " id="polygon91" />
                                    <polygon points="243.8,27.4 279.2,27.4 305.4,0 270.1,0 " id="polygon93" />
                                </g>
                                <g id="g105">
                                    <polygon points="232.8,87.2 244.5,99.5 279.9,99.5 268.2,87.2 " id="polygon97" />
                                    <polygon points="179.5,130.2 206.8,101.7 169.7,101.7 142.5,130.2 " id="polygon99" />
                                    <polygon points="192.3,87.2 180.5,99.5 217.8,99.5 229.7,87.2 " id="polygon101" />
                                    <polygon points="284.6,114.5 272.4,101.7 237.1,101.7 249.2,114.5 " id="polygon103" />
                                </g>
                            </g>
                        </g>
                    </g>
                </g>
                <g id="g117" />
            </g>
        </g>
    </g>
</svg>
