<?xml version="1.0" encoding="UTF-8" standalone="no" ?>
<!DOCTYPE svg PUBLIC "-//W3C//DTD SVG 1.1//EN" "http://www.w3.org/Graphics/SVG/1.1/DTD/svg11.dtd">
<svg xmlns="http://www.w3.org/2000/svg" xmlns:xlink="http://www.w3.org/1999/xlink" version="1.1" width="1080" height="500" viewBox="0 0 1080 500" xml:space="preserve">
<desc>Created with Fabric.js 5.2.4</desc>
<defs>
</defs>
<g transform="matrix(1 0 0 1 540 250)" id="fdef1420-f503-4581-8f1e-a7e4613e3210"  >
<rect style="stroke: none; stroke-width: 1; stroke-dasharray: none; stroke-linecap: butt; stroke-dashoffset: 0; stroke-linejoin: miter; stroke-miterlimit: 4; fill: rgb(255,255,255); fill-rule: nonzero; opacity: 1; visibility: hidden;" vector-effect="non-scaling-stroke"  x="-540" y="-250" rx="0" ry="0" width="1080" height="500" />
</g>
<g transform="matrix(Infinity NaN NaN Infinity 0 0)" id="6edb332d-cc1a-47d3-a3f3-b0ef8112162d"  >
</g>
<g transform="matrix(1.76 0 0 1.76 540 250)"  >
<g style=""   >
		<g transform="matrix(1 0 0 1 0 0)" id="container"  >
</g>
		<g transform="matrix(1 0 0 1 183.1 0)" id="icon_container"  >
</g>
		<g transform="matrix(1.75 0 0 1.75 -233.04 0)" id="path448497"  >
<path style="stroke: rgb(84,103,98); stroke-width: 0; stroke-dasharray: none; stroke-linecap: butt; stroke-dashoffset: 0; stroke-linejoin: miter; stroke-miterlimit: 2; fill: rgb(84,103,98); fill-rule: nonzero; opacity: 1;" vector-effect="non-scaling-stroke"  transform=" translate(-100, -100)" d="M 91.27637 126.36865 C 87.87061 124.92822 84.81006 122.86181 82.18213 120.23388 C 79.55371 117.60594999999999 77.49463 114.5454 76.04736 111.13915 C 74.55664 107.61132 73.79344999999999 103.85936 73.79344999999999 99.99999 C 73.79344999999999 96.14062 74.54930999999999 92.38915 76.04736 88.86082999999999 C 77.4873 85.45457999999999 79.55371 82.39452 82.18213 79.7661 C 84.81006000000001 77.13816999999999 87.87061 75.0786 91.27637 73.63132999999999 C 94.80518000000001 72.13377 98.55616 71.37741999999999 102.41553 71.37741999999999 C 111.97803 71.37741999999999 120.87061 76.12302999999999 126.20655000000001 84.07956999999999 L 116.8169 90.37302999999999 C 113.59131000000001 85.55564999999999 108.20557000000001 82.68259999999998 102.41553 82.68259999999998 C 97.79346000000001 82.68259999999998 93.44385 84.48288999999998 90.16748000000001 87.75193999999998 C 86.89111000000003 91.02098999999997 85.09814 95.37744 85.09814 100 C 85.09814 104.62305 86.89843 108.97217 90.16748 112.24854 C 93.43603 115.51807000000001 97.78564 117.3169 102.41552999999999 117.3169 C 108.17626999999999 117.3169 113.54834 114.45948 116.78075999999999 109.67823 L 126.14891999999999 116.00636 C 120.81298 123.90675 111.94188999999999 128.62257 102.41551999999999 128.62257 C 98.55615 128.62256 94.80518 127.8667 91.27637 126.36865 z" stroke-linecap="round" />
</g>
		<g transform="matrix(1.75 0 0 1.75 -173.17 0.19)" id="path448499"  >
<path style="stroke: rgb(84,103,98); stroke-width: 0; stroke-dasharray: none; stroke-linecap: butt; stroke-dashoffset: 0; stroke-linejoin: miter; stroke-miterlimit: 2; fill: rgb(84,103,98); fill-rule: nonzero; opacity: 1;" vector-effect="non-scaling-stroke"  transform=" translate(-100, -100)" d="M 94.34741 75.51758 L 105.65259 71.91748 L 105.65259 128.08252 L 94.34741 128.08252 L 94.34741 75.51758 z" stroke-linecap="round" />
</g>
		<g transform="matrix(1.75 0 0 1.75 -108.6 0.19)" id="path448501"  >
<path style="stroke: rgb(84,103,98); stroke-width: 0; stroke-dasharray: none; stroke-linecap: butt; stroke-dashoffset: 0; stroke-linejoin: miter; stroke-miterlimit: 2; fill: rgb(84,103,98); fill-rule: nonzero; opacity: 1;" vector-effect="non-scaling-stroke"  transform=" translate(-100, -100)" d="M 88.08252 93.00806 L 88.08252 128.08228 L 76.77783 128.08228 L 76.77783 71.91772 L 86.79346 71.91772 L 111.91650999999999 107.31567000000001 L 111.91650999999999 71.91772 L 123.22216999999999 71.91772 L 123.22216999999999 128.08227 L 112.98974999999999 128.08227 L 88.08252 93.00806 z" stroke-linecap="round" />
</g>
		<g transform="matrix(1.75 0 0 1.75 -22.67 0.19)" id="path448503"  >
<path style="stroke: rgb(84,103,98); stroke-width: 0; stroke-dasharray: none; stroke-linecap: butt; stroke-dashoffset: 0; stroke-linejoin: miter; stroke-miterlimit: 2; fill: rgb(84,103,98); fill-rule: nonzero; opacity: 1;" vector-effect="non-scaling-stroke"  transform=" translate(-100, -100)" d="M 81.8186 128.08252 L 118.18139 128.08252 L 118.18139 117.56884999999998 L 81.8186 117.56884999999998 L 81.8186 128.08252 z M 81.8186 105.47217 L 118.18139 105.47217 L 118.18139 94.74317 L 81.8186 94.74317 L 81.8186 105.47217 z M 81.8186 71.91748 L 81.8186 82.64648 L 118.18139 82.64648 L 118.18139 71.91748 L 81.8186 71.91748 z" stroke-linecap="round" />
</g>
		<g transform="matrix(1.75 0 0 1.75 52.64 0.19)" id="path448505"  >
<path style="stroke: rgb(84,103,98); stroke-width: 0; stroke-dasharray: none; stroke-linecap: butt; stroke-dashoffset: 0; stroke-linejoin: miter; stroke-miterlimit: 2; fill: rgb(84,103,98); fill-rule: nonzero; opacity: 1;" vector-effect="non-scaling-stroke"  transform=" translate(-100, -100)" d="M 81.53052 128.08252 L 92.83520999999999 128.08252 L 92.83520999999999 106.33643 L 118.46949 106.33643 L 118.46949 95.60743 L 81.53052 95.60743 L 81.53052 128.08252 z M 81.53052 71.91748 L 81.53052 82.64648 L 118.46948 82.64648 L 118.46948 71.91748 L 81.53052 71.91748 z" stroke-linecap="round" />
</g>
		<g transform="matrix(1.75 0 0 1.75 125.17 0.19)" id="path448507"  >
<path style="stroke: rgb(84,103,98); stroke-width: 0; stroke-dasharray: none; stroke-linecap: butt; stroke-dashoffset: 0; stroke-linejoin: miter; stroke-miterlimit: 2; fill: rgb(84,103,98); fill-rule: nonzero; opacity: 1;" vector-effect="non-scaling-stroke"  transform=" translate(-100, -100)" d="M 81.71045 75.51782 L 93.01514 71.91772 L 93.01514 117.35376 L 118.28955 117.35376 L 118.28955 128.08228 L 81.71045000000001 128.08228 L 81.71045000000001 75.51782 z" stroke-linecap="round" />
</g>
		<g transform="matrix(1.75 0 0 1.75 173.82 0.19)" id="path448509"  >
<path style="stroke: rgb(84,103,98); stroke-width: 0; stroke-dasharray: none; stroke-linecap: butt; stroke-dashoffset: 0; stroke-linejoin: miter; stroke-miterlimit: 2; fill: rgb(84,103,98); fill-rule: nonzero; opacity: 1;" vector-effect="non-scaling-stroke"  transform=" translate(-100, -100)" d="M 94.34741 75.51758 L 105.65259 71.91748 L 105.65259 128.08252 L 94.34741 128.08252 L 94.34741 75.51758 z" stroke-linecap="round" />
</g>
		<g transform="matrix(1.75 0 0 1.75 232.38 0.19)" id="path448511"  >
<polygon style="stroke: rgb(84,103,98); stroke-width: 0; stroke-dasharray: none; stroke-linecap: butt; stroke-dashoffset: 0; stroke-linejoin: miter; stroke-miterlimit: 2; fill: rgb(84,103,98); fill-rule: nonzero; opacity: 1;" vector-effect="non-scaling-stroke"  points="13.01,-28.08 0.34,-9.33 -12.4,-28.08 -25.73,-28.08 -6.91,-0.01 -25.98,28.08 -12.62,28.08 0.24,9.32 0.25,9.35 25.98,-28.08 " />
</g>
		<g transform="matrix(1.75 0 0 1.75 258.82 37.23)" id="path448511"  >
<polygon style="stroke: rgb(195,89,92); stroke-width: 0; stroke-dasharray: none; stroke-linecap: butt; stroke-dashoffset: 0; stroke-linejoin: miter; stroke-miterlimit: 2; fill: rgb(195,89,92); fill-rule: nonzero; opacity: 1;" vector-effect="non-scaling-stroke"  points="2.06,-6.92 -11.5,-6.92 -2.01,6.92 11.5,6.92 " />
</g>
		<g transform="matrix(1 0 0 1 183.1 0)" id="icon"  >
</g>
</g>
</g>
</svg>